<?xml version="1.0" encoding="UTF-8" standalone="no"?>
<svg
   version="1.1"
   viewBox="0 0 600 337.5"
   id="svg514"
   sodipodi:docname="missing_image - Copy.svg"
   inkscape:version="1.2.1 (9c6d41e410, 2022-07-14)"
   xmlns:inkscape="http://www.inkscape.org/namespaces/inkscape"
   xmlns:sodipodi="http://sodipodi.sourceforge.net/DTD/sodipodi-0.dtd"
   xmlns="http://www.w3.org/2000/svg"
   xmlns:svg="http://www.w3.org/2000/svg">
  <defs
     id="defs518" />
  <sodipodi:namedview
     id="namedview516"
     pagecolor="#ffffff"
     bordercolor="#000000"
     borderopacity="0.25"
     inkscape:showpageshadow="2"
     inkscape:pageopacity="0.0"
     inkscape:pagecheckerboard="0"
     inkscape:deskcolor="#d1d1d1"
     showgrid="false"
     inkscape:zoom="0.86005136"
     inkscape:cx="184.87268"
     inkscape:cy="99.412668"
     inkscape:window-width="2064"
     inkscape:window-height="1623"
     inkscape:window-x="-11"
     inkscape:window-y="0"
     inkscape:window-maximized="0"
     inkscape:current-layer="svg514" />
  <path
     d="m 257.68652,93.526029 c -7.78686,0 -14.1045,6.317637 -14.1045,14.104501 v 122.23896 c 0,7.78685 6.31764,14.10448 14.1045,14.10448 h 28.20898 v -23.50748 c 0,-7.78686 6.31765,-14.1045 14.1045,-14.1045 7.78686,0 14.1045,6.31764 14.1045,14.1045 v 23.50748 h 28.20898 c 7.78686,0 14.1045,-6.31763 14.1045,-14.10448 V 107.63053 c 0,-7.786864 -6.31764,-14.104501 -14.1045,-14.104501 z m 4.7015,70.522481 c 0,-2.58583 2.11567,-4.7015 4.7015,-4.7015 h 9.40298 c 2.58583,0 4.7015,2.11567 4.7015,4.7015 v 9.403 c 0,2.58582 -2.11567,4.70149 -4.7015,4.70149 h -9.40298 c -2.58583,0 -4.7015,-2.11567 -4.7015,-4.70149 z m 32.91048,-4.7015 h 9.403 c 2.58582,0 4.7015,2.11567 4.7015,4.7015 v 9.403 c 0,2.58582 -2.11568,4.70149 -4.7015,4.70149 h -9.403 c -2.58582,0 -4.7015,-2.11567 -4.7015,-4.70149 v -9.403 c 0,-2.58583 2.11568,-4.7015 4.7015,-4.7015 z m 23.50749,4.7015 c 0,-2.58583 2.11568,-4.7015 4.7015,-4.7015 h 9.403 c 2.58582,0 4.70149,2.11567 4.70149,4.7015 v 9.403 c 0,2.58582 -2.11567,4.70149 -4.70149,4.70149 h -9.403 c -2.58582,0 -4.7015,-2.11567 -4.7015,-4.70149 z m -51.71647,-42.31349 h 9.40298 c 2.58583,0 4.7015,2.11568 4.7015,4.7015 v 9.403 c 0,2.58582 -2.11567,4.7015 -4.7015,4.7015 h -9.40298 c -2.58583,0 -4.7015,-2.11568 -4.7015,-4.7015 v -9.403 c 0,-2.58582 2.11567,-4.7015 4.7015,-4.7015 z m 23.50748,4.7015 c 0,-2.58582 2.11568,-4.7015 4.7015,-4.7015 h 9.403 c 2.58582,0 4.7015,2.11568 4.7015,4.7015 v 9.403 c 0,2.58582 -2.11568,4.7015 -4.7015,4.7015 h -9.403 c -2.58582,0 -4.7015,-2.11568 -4.7015,-4.7015 z m 32.91049,-4.7015 h 9.403 c 2.58582,0 4.70149,2.11568 4.70149,4.7015 v 9.403 c 0,2.58582 -2.11567,4.7015 -4.70149,4.7015 h -9.403 c -2.58582,0 -4.7015,-2.11568 -4.7015,-4.7015 v -9.403 c 0,-2.58582 2.11568,-4.7015 4.7015,-4.7015 z"
     id="path144"
     style="stroke-width:0.999999" />
</svg>
