<svg version="1.1" viewBox="0 0 600 337.5"
    xmlns="http://www.w3.org/2000/svg">
    <path d="m274.891 153.057c0-3.46226 2.81492-6.27717 6.27717-6.27717h37.6631c3.46227 0 6.27724 2.81493 6.27724 6.27717v31.3859c0 3.46226-2.81494 6.27717-6.27724 6.27717h-37.6631c-3.46226 0-6.27717-2.81492-6.27717-6.27717zm31.7586 10.4457c-0.44136-0.64733-1.16716-1.02985-1.942-1.02985s-1.51045 0.38252-1.94201 1.02985l-8.53304 12.5151-2.59915-3.24648c-0.45117-0.55907-1.12793-0.88273-1.83412-0.88273-0.70618 0-1.39275 0.32366-1.83411 0.88273l-6.27717 7.84646c-0.56887 0.70618-0.67677 1.67718-0.28444 2.49126 0.39233 0.81407 1.21621 1.33389 2.11856 1.33389h32.9553c0.87293 0 1.67717-0.48059 2.0793-1.25543 0.40215-0.77484 0.35311-1.70661-0.13731-2.4226zm-20.7736-1.02985a4.70789 4.70789 0 1 0 0-9.41576 4.70789 4.70789 0 1 0 0 9.41576z" fill="currentColor" stroke-width=".999996"/>
</svg>
