<svg width="600" height="400" version="1.1" viewBox="0 0 600 400" xmlns="http://www.w3.org/2000/svg"><path fill="currentColor" d="m257.687 124.776c-7.78686 0-14.1045 6.31764-14.1045 14.1045v122.239c0 7.78685 6.31764 14.1045 14.1045 14.1045h28.209v-23.5075c0-7.78686 6.31765-14.1045 14.1045-14.1045 7.78686 0 14.1045 6.31764 14.1045 14.1045v23.5075h28.209c7.78686 0 14.1045-6.31763 14.1045-14.1045v-122.239c0-7.78686-6.31764-14.1045-14.1045-14.1045zm4.7015 70.5225c0-2.58583 2.11567-4.7015 4.7015-4.7015h9.40298c2.58583 0 4.7015 2.11567 4.7015 4.7015v9.403c0 2.58582-2.11567 4.70149-4.7015 4.70149h-9.40298c-2.58583 0-4.7015-2.11567-4.7015-4.70149zm32.9105-4.7015h9.403c2.58582 0 4.7015 2.11567 4.7015 4.7015v9.403c0 2.58582-2.11568 4.70149-4.7015 4.70149h-9.403c-2.58582 0-4.7015-2.11567-4.7015-4.70149v-9.403c0-2.58583 2.11568-4.7015 4.7015-4.7015zm23.5075 4.7015c0-2.58583 2.11568-4.7015 4.7015-4.7015h9.403c2.58582 0 4.70149 2.11567 4.70149 4.7015v9.403c0 2.58582-2.11567 4.70149-4.70149 4.70149h-9.403c-2.58582 0-4.7015-2.11567-4.7015-4.70149zm-51.7165-42.3135h9.40298c2.58583 0 4.7015 2.11568 4.7015 4.7015v9.403c0 2.58582-2.11567 4.7015-4.7015 4.7015h-9.40298c-2.58583 0-4.7015-2.11568-4.7015-4.7015v-9.403c0-2.58582 2.11567-4.7015 4.7015-4.7015zm23.5075 4.7015c0-2.58582 2.11568-4.7015 4.7015-4.7015h9.403c2.58582 0 4.7015 2.11568 4.7015 4.7015v9.403c0 2.58582-2.11568 4.7015-4.7015 4.7015h-9.403c-2.58582 0-4.7015-2.11568-4.7015-4.7015zm32.9105-4.7015h9.403c2.58582 0 4.70149 2.11568 4.70149 4.7015v9.403c0 2.58582-2.11567 4.7015-4.70149 4.7015h-9.403c-2.58582 0-4.7015-2.11568-4.7015-4.7015v-9.403c0-2.58582 2.11568-4.7015 4.7015-4.7015z" stroke-width=".999999"/></svg>
